<?xml version="1.0" encoding="utf-8"?>
<!-- Generator: Adobe Illustrator 21.0.1, SVG Export Plug-In . SVG Version: 6.00 Build 0)  -->
<svg version="1.1"
	 id="Layer_1" inkscape:version="0.48.5 r10040" sodipodi:docname="logo NEC_42_.svg" xmlns:cc="http://creativecommons.org/ns#" xmlns:dc="http://purl.org/dc/elements/1.1/" xmlns:inkscape="http://www.inkscape.org/namespaces/inkscape" xmlns:rdf="http://www.w3.org/1999/02/22-rdf-syntax-ns#" xmlns:sodipodi="http://sodipodi.sourceforge.net/DTD/sodipodi-0.dtd" xmlns:svg="http://www.w3.org/2000/svg"
	 xmlns="http://www.w3.org/2000/svg" xmlns:xlink="http://www.w3.org/1999/xlink" x="0px" y="0px" viewBox="0 0 275 275"
	 style="enable-background:new 0 0 275 275;" xml:space="preserve">
<style type="text/css">
	.st0{fill:#FFFFFF;}
</style>
<path class="st0" d="M137.5,0C61.6,0,0,61.6,0,137.5S61.6,275,137.5,275S275,213.4,275,137.5S213.4,0,137.5,0z M152.6,136.9
	c24.3,42.6,20.8,88.2,20.8,88.2l-58,34.4c0,0-7.6-14.3-12.9-23c-5.2-8.7-11.9-26.3-11.9-26.3l19.8-11.4c0,0,3,7.8,9.4,15.9
	c6.4,8.1,12.4,23.3,22.3,17.8c9.9-5.5-7-69.8-24.3-100.1c-17.3-30.3-23.3-85.7-23.3-85.7l52.7-34.4c0,0,6.4,3.5,14.4,12.4
	c7.9,8.9,14.7,21.5,14.7,21.5l-22.3,13.9c0,0-3-4.5-9.4-14.4c-6.4-9.9-12.9-17.3-18.4-13.7C120.7,35.6,130.1,97.5,152.6,136.9z"/>
</svg>
